<svg xmlns="http://www.w3.org/2000/svg" width="37.143" height="25.536" viewBox="0 0 37.143 25.536">
  <g id="credit-card_8_" data-name="credit-card (8)" transform="translate(0 -80)">
    <path id="Path_71" data-name="Path 71" d="M37.143,86.021V84.062A4.062,4.062,0,0,0,33.08,80H4.062A4.062,4.062,0,0,0,0,84.062v1.959a.363.363,0,0,0,.363.363H36.78A.363.363,0,0,0,37.143,86.021Z" fill="#d8d3d3"/>
    <path id="Path_72" data-name="Path 72" d="M0,200.363v12.405a4.062,4.062,0,0,0,4.062,4.062H33.08a4.062,4.062,0,0,0,4.062-4.062V200.363A.363.363,0,0,0,36.78,200H.363A.363.363,0,0,0,0,200.363Zm9.286,9.5a1.161,1.161,0,0,1-1.161,1.161H6.964A1.161,1.161,0,0,1,5.8,209.866v-1.161a1.161,1.161,0,0,1,1.161-1.161H8.125a1.161,1.161,0,0,1,1.161,1.161Z" transform="translate(0 -111.295)" fill="#d8d3d3"/>
  </g>
</svg>
