<svg xmlns="http://www.w3.org/2000/svg" width="16.662" height="16.661" viewBox="0 0 16.662 16.661">
  <g id="floppy-disk" transform="translate(0.001 -0.003)">
    <path id="Path_52" data-name="Path 52" d="M16.658,4.121a.489.489,0,0,0-.108-.261c-.024-.03.224.221-3.71-3.713A.492.492,0,0,0,12.495,0H1.463A1.466,1.466,0,0,0,0,1.467V15.2a1.466,1.466,0,0,0,1.464,1.464H15.2A1.466,1.466,0,0,0,16.66,15.2c0-11.851,0-11.042,0-11.079ZM11.226.979V4.168a.489.489,0,0,1-.488.488H10.12V.979Zm-2.083,0V4.656H4.62a.489.489,0,0,1-.488-.488V.979Zm2.083,9.47H4.132V9.831a.489.489,0,0,1,.488-.488h6.118a.489.489,0,0,1,.488.488ZM4.132,15.688V11.425h7.094v4.263ZM15.684,15.2a.489.489,0,0,1-.488.488H12.2V9.831a1.466,1.466,0,0,0-1.464-1.464H4.62A1.466,1.466,0,0,0,3.156,9.831v5.858H1.463A.489.489,0,0,1,.975,15.2V1.467A.489.489,0,0,1,1.463.979H3.156V4.168A1.466,1.466,0,0,0,4.62,5.633h6.118A1.466,1.466,0,0,0,12.2,4.168V.979h.091l3.391,3.391Z" transform="translate(0 0)" fill="#fff"/>
  </g>
</svg>
