<svg xmlns="http://www.w3.org/2000/svg" viewBox="0 0 681.49 108.45"><defs><style>.cls-1{fill:#0d3883;}.cls-2{fill:#009cda;}</style></defs><title>Asset 1</title><g id="Layer_2" data-name="Layer 2"><g id="Layer_1-2" data-name="Layer 1"><path class="cls-1" d="M35.25,67.33l-9,39.5H0L23.11,6.46H63c21.53,0,32.07,11.05,31.81,25.31C94.56,45.38,86.59,54.31,75,58.3c7.31,4.29,9.66,12.36,6.34,27.21a149.57,149.57,0,0,0-3.6,21.32h-26c0-3.11.65-9.8,3.72-22.76,2.43-10.46,1.82-16.74-9.38-16.74Zm4.37-18.91H51.25c10.46,0,15.76-4.87,15.91-13.14.13-7.56-5.22-10-11.07-10H44.9Z"/><path class="cls-1" d="M174.9,59.92c-.33,18.56-10.12,48.53-45.61,48.53-23.91,0-33-13.52-32.65-31.71.37-20,12.51-48.43,45.38-48.43C166.13,28.31,175.2,42.9,174.9,59.92ZM123.5,78.8c-.14,7.83,2.19,11.6,8.12,11.6,11.66,0,16.76-24.35,16.92-33.07.13-7.42-2.2-10.86-8.38-10.86C128.79,46.47,123.67,69.06,123.5,78.8Z"/><path class="cls-1" d="M261,59.92c-.34,18.56-10.12,48.53-45.61,48.53-23.91,0-33-13.52-32.65-31.71.36-20,12.5-48.43,45.38-48.43C252.18,28.31,261.25,42.9,261,59.92ZM209.54,78.8c-.14,7.83,2.2,11.6,8.13,11.6,11.66,0,16.76-24.35,16.92-33.07.13-7.42-2.2-10.86-8.38-10.86C214.83,46.47,209.72,69.06,209.54,78.8Z"/><path class="cls-1" d="M265.53,106.83,279,48.17h-9.68l4.16-18.24h9.68l1.35-5.59C288.41,8.18,296.12,0,313.1,0a52.85,52.85,0,0,1,12.42,1.37l-4.19,17.3a22.86,22.86,0,0,0-4.06-.34c-4.17,0-6,2.67-7,6.79l-1.1,4.81h11.43l-4.16,18.24H305l-13.49,58.66Z"/><path class="cls-2" d="M350.27,67.33l-9,39.5H315L338.12,6.46H378c21.53,0,32.07,11.05,31.81,25.31-.24,13.61-8.22,22.54-19.77,26.53,7.3,4.29,9.65,12.36,6.33,27.21a147.48,147.48,0,0,0-3.59,21.32H366.74c0-3.11.65-9.8,3.72-22.76,2.44-10.46,1.82-16.74-9.37-16.74Zm4.36-18.91h11.64c10.45,0,15.75-4.87,15.9-13.14.13-7.56-5.22-10-11.07-10H359.91Z"/><path class="cls-2" d="M480.34,83.08c-2.82,12.42-4.31,19.54-5.07,23.75H449.7c.18-2.19.68-5.46,1-7.33-5.87,6.71-11.85,8.85-21.31,8.85-15.47,0-21.49-10.84-17.56-27.77l11.67-50.65h26.17l-11,47.77c-1.53,6.59-.4,11,5.24,11s9.68-3.82,12.19-14.42l10.29-44.37h26.26Z"/><path class="cls-2" d="M490.77,106.83,515.05,1h26.21L517,106.83Z"/><path class="cls-2" d="M564.13,73.9a28,28,0,0,0-.85,5.9c-.1,5.83,1.7,10.79,8.15,10.79s8.77-3.92,10.73-7.76H607.9c-5.36,14.16-15.38,25.52-38.55,25.52-24.09,0-32.1-13.4-31.77-31.8.3-16.65,10.68-48.34,44.37-48.24,22.58.05,31.53,13.2,31.25,29a67.07,67.07,0,0,1-2.84,16.62Zm23.36-14.47a21,21,0,0,0,.84-5.5c.09-4.79-1.82-8.69-7.88-8.69-7.56,0-11.14,7.47-12.83,14.19Z"/><path class="cls-2" d="M627.38,55.84c3-13,4.73-20.75,5.6-25.91h25.21a122,122,0,0,1-2.39,14c5.16-9.49,12.47-15.17,25.69-15.17l-6.14,25.87c-15.56-.7-22.71,5.37-25.91,19.11l-7.57,33.14H615.66Z"/></g></g></svg>