<svg xmlns="http://www.w3.org/2000/svg" width="9.233" height="10.911" viewBox="0 0 9.233 10.911">
  <path id="Path_65" data-name="Path 65" d="M11.156,9.233c0,1.153-2.393,1.679-4.616,1.679s-4.616-.525-4.616-1.679c0-.887,1.32-1.306,2.428-1.5a.42.42,0,0,1,.146.827c-1.336.234-1.713.6-1.734.68.064.22,1.323.833,3.778.833s3.713-.613,3.778-.846c-.022-.065-.4-.435-1.747-.669a.42.42,0,0,1,.144-.827C9.829,7.924,11.156,8.342,11.156,9.233Zm-6.3-2.518H5.28V9.233a.42.42,0,0,0,.42.419H7.379a.421.421,0,0,0,.42-.419V6.715h.419a.421.421,0,0,0,.42-.42V3.777a1.027,1.027,0,0,0-.922-.754,7.383,7.383,0,0,0-1.17-.079,7.508,7.508,0,0,0-1.184.079,1.028,1.028,0,0,0-.921.754V6.3A.421.421,0,0,0,4.861,6.715Zm1.679-4.2A1.259,1.259,0,1,0,5.28,1.259,1.259,1.259,0,0,0,6.539,2.518Z" transform="translate(-1.923)" fill="#063446"/>
</svg>
