<svg id="Group_61" data-name="Group 61" xmlns="http://www.w3.org/2000/svg" width="12.688" height="12.687" viewBox="0 0 12.688 12.687">
  <path id="Path_60" data-name="Path 60" d="M12.606,6.15,10.951,4.5a.276.276,0,0,0-.471.2v.827H7.17V2.209H8a.276.276,0,0,0,.2-.471L6.538.083a.276.276,0,0,0-.39,0L4.493,1.738a.276.276,0,0,0,.195.471h.827v3.31H2.206V4.691a.276.276,0,0,0-.471-.2L.08,6.15a.276.276,0,0,0,0,.39L1.735,8.2A.276.276,0,0,0,2.206,8V7.173h3.31v3.31H4.688a.276.276,0,0,0-.2.471l1.655,1.655a.277.277,0,0,0,.391,0l1.655-1.655a.276.276,0,0,0-.2-.471H7.17V7.173h3.31V8a.276.276,0,0,0,.471.2l1.655-1.655A.277.277,0,0,0,12.606,6.15Z" transform="translate(0.001 -0.002)" fill="#063446"/>
</svg>
